<?xml version="1.0" standalone="no"?>
<!DOCTYPE svg PUBLIC "-//W3C//DTD SVG 20010904//EN"
 "http://www.w3.org/TR/2001/REC-SVG-20010904/DTD/svg10.dtd">
<svg version="1.0" xmlns="http://www.w3.org/2000/svg"
 width="1024.000000pt" height="1024.000000pt" viewBox="0 0 1024.000000 1024.000000"
 preserveAspectRatio="xMidYMid meet">
<metadata>
Created by potrace 1.11, written by Peter Selinger 2001-2013
</metadata>
<g transform="translate(0.000000,1024.000000) scale(0.100000,-0.100000)"
fill="#000000" stroke="none">
<path d="M4826 10229 c-1641 -94 -3124 -964 -4022 -2359 -679 -1053 -942
-2360 -728 -3615 242 -1419 1068 -2662 2294 -3451 1135 -731 2559 -977 3895
-672 1904 434 3409 1939 3843 3843 150 655 169 1346 56 2010 -242 1419 -1068
2662 -2294 3451 -888 572 -1972 854 -3044 793z m2072 -2755 c112 -23 196 -66
268 -138 49 -50 64 -73 82 -129 45 -137 39 -284 -15 -390 -72 -144 -255 -256
-416 -257 -112 0 -152 38 -149 144 1 64 27 87 121 112 175 45 250 133 220 256
-6 28 -25 65 -40 83 -42 48 -102 60 -294 60 -174 0 -201 -7 -244 -61 -34 -43
-35 -82 -6 -190 66 -241 228 -722 372 -1100 2 -7 37 -3 105 12 403 91 830 20
1186 -197 306 -187 558 -505 672 -849 60 -179 74 -275 74 -500 0 -232 -14
-323 -80 -511 -189 -543 -651 -939 -1219 -1045 -151 -29 -452 -26 -595 5 -572
122 -1019 516 -1199 1056 -58 176 -74 280 -75 490 0 220 13 311 74 497 125
378 394 704 745 898 33 18 61 34 63 35 1 1 -26 82 -61 179 l-63 176 -673 -975
-673 -975 -247 0 -246 0 -23 -116 c-67 -349 -223 -627 -491 -877 -209 -195
-462 -324 -761 -388 -143 -31 -444 -34 -595 -5 -568 106 -1030 502 -1219 1045
-66 188 -80 279 -80 511 0 176 3 220 22 310 48 218 120 390 238 568 195 292
483 513 813 622 144 48 235 67 386 80 275 24 582 -35 831 -160 l93 -47 226
318 226 318 -52 181 -52 180 -152 0 c-137 0 -155 2 -195 23 -77 38 -107 112
-98 242 l3 50 485 0 c267 0 497 -3 512 -8 38 -10 98 -65 114 -104 8 -19 14
-69 14 -118 l0 -85 -205 0 c-113 0 -205 -2 -205 -6 0 -3 12 -45 27 -95 l27
-89 909 0 c725 0 908 3 904 13 -19 51 -72 228 -108 362 -62 235 -57 306 32
431 56 77 162 133 304 159 100 19 290 18 383 -1z"/>
<path d="M4553 6228 c2 -7 109 -373 236 -813 127 -440 235 -808 239 -819 6
-14 127 157 568 800 309 451 564 825 568 832 6 9 -158 12 -804 12 -646 0 -811
-3 -807 -12z"/>
<path d="M4174 5777 l-161 -221 73 -69 c196 -183 337 -403 424 -664 34 -101
48 -168 76 -360 l5 -33 104 0 c58 0 105 3 105 6 0 6 -461 1558 -464 1560 0 1
-74 -98 -162 -219z"/>
<path d="M2894 5608 c-301 -20 -589 -152 -809 -373 -247 -246 -375 -556 -375
-905 0 -347 129 -658 376 -904 248 -249 557 -376 915 -376 282 0 548 88 771
255 250 188 419 454 487 768 l19 87 -529 0 -530 0 -50 -40 c-121 -95 -277 -88
-383 18 -52 51 -78 106 -84 178 -13 162 113 303 276 308 l55 2 294 413 c162
227 293 415 291 416 -2 1 -31 17 -65 34 -186 93 -419 135 -659 119z"/>
<path d="M7150 5609 c-99 -7 -208 -25 -230 -39 -10 -6 27 -118 157 -471 l169
-464 62 -16 c113 -30 187 -100 218 -207 67 -230 -181 -435 -398 -329 -135 66
-197 222 -144 360 l17 45 -165 464 c-90 255 -169 475 -175 490 l-10 28 -53
-31 c-243 -143 -431 -357 -541 -619 -116 -277 -128 -609 -30 -900 104 -312
340 -583 640 -735 416 -209 917 -176 1313 88 106 71 292 262 359 370 319 518
249 1162 -173 1587 -273 275 -622 405 -1016 379z"/>
<path d="M3533 4898 c-298 -409 -301 -413 -287 -440 l15 -28 511 0 511 0 -7
65 c-14 137 -76 327 -152 462 -49 89 -140 206 -221 286 l-69 67 -301 -412z"/>
<path d="M2955 4480 c-64 -14 -105 -59 -113 -125 -12 -113 97 -193 201 -147
54 24 78 57 84 116 12 100 -73 177 -172 156z"/>
<path d="M7205 4475 c-134 -47 -129 -239 7 -276 141 -38 247 144 141 243 -25
23 -41 31 -93 43 -8 2 -33 -2 -55 -10z"/>
</g>
</svg>
