<?xml version="1.0" standalone="no"?>
<!DOCTYPE svg PUBLIC "-//W3C//DTD SVG 20010904//EN"
 "http://www.w3.org/TR/2001/REC-SVG-20010904/DTD/svg10.dtd">
<svg version="1.0" xmlns="http://www.w3.org/2000/svg"
 width="684.000000pt" height="684.000000pt" viewBox="0 0 684.000000 684.000000"
 preserveAspectRatio="xMidYMid meet">
<metadata>
Created by potrace 1.11, written by Peter Selinger 2001-2013
</metadata>
<g transform="translate(0.000000,684.000000) scale(0.100000,-0.100000)"
fill="#000000" stroke="none">
<path d="M4708 5590 c-136 -17 -234 -87 -291 -208 -46 -99 -44 -181 11 -377
22 -82 53 -183 67 -224 14 -41 25 -78 25 -83 0 -4 -377 -7 -837 -6 l-837 3
-27 90 -26 90 183 3 184 2 0 86 c0 101 -16 146 -62 174 -32 19 -49 20 -505 20
l-473 0 0 -87 c0 -100 16 -139 72 -173 29 -18 51 -20 189 -20 l156 0 50 -175
50 -175 -208 -289 -209 -290 -123 59 c-209 101 -385 140 -632 140 -178 0 -294
-17 -449 -67 -709 -228 -1133 -960 -981 -1696 115 -557 562 -1004 1128 -1128
135 -29 370 -36 515 -15 619 91 1116 570 1228 1184 l17 92 236 0 236 0 25 39
c64 100 1216 1761 1221 1761 7 0 119 -318 119 -335 0 -5 -33 -28 -72 -50 -467
-260 -755 -782 -724 -1314 20 -352 154 -663 395 -913 251 -262 556 -408 913
-437 425 -35 821 111 1123 414 302 301 443 683 414 1118 -18 266 -118 531
-285 753 -74 98 -235 250 -335 316 -162 108 -333 179 -522 220 -148 31 -397
31 -556 0 -62 -13 -115 -21 -117 -19 -6 6 -210 598 -262 762 -102 322 -117
397 -86 456 22 43 65 58 191 65 180 11 305 -21 339 -89 23 -42 22 -132 0 -175
-22 -43 -94 -88 -165 -103 -107 -23 -141 -57 -141 -140 0 -33 6 -47 34 -75 30
-30 40 -34 85 -34 64 0 187 39 248 78 143 92 214 237 199 403 -12 130 -65 226
-160 289 -94 64 -166 82 -346 85 -85 2 -185 0 -222 -5z m-291 -1143 c-4 -10
-208 -307 -985 -1431 l-75 -109 -219 763 c-120 419 -218 769 -218 776 0 12
121 14 751 14 604 0 750 -2 746 -13z m-1483 -952 c113 -396 206 -723 206 -727
0 -5 -47 -8 -104 -8 l-105 0 -6 58 c-40 360 -169 641 -408 889 l-100 103 34
48 c161 229 265 369 270 363 4 -3 99 -330 213 -726z m-1271 400 c138 -24 381
-110 401 -143 3 -5 -120 -184 -274 -398 l-281 -389 -54 -2 c-101 -4 -187 -58
-232 -147 -22 -42 -27 -65 -27 -126 0 -65 4 -83 29 -129 31 -56 88 -106 148
-128 18 -6 61 -12 97 -12 74 -1 126 19 182 68 l36 31 492 0 493 0 -7 -52 c-10
-76 -69 -247 -118 -341 -59 -112 -139 -217 -244 -317 -173 -166 -362 -265
-607 -317 -120 -26 -361 -24 -482 4 -125 29 -247 76 -340 129 -515 293 -748
891 -564 1450 137 419 516 745 950 818 113 19 297 19 402 1z m3835 -25 c612
-65 1072 -569 1072 -1175 0 -378 -175 -727 -480 -954 -392 -292 -940 -309
-1345 -42 -458 302 -653 869 -473 1379 63 179 147 312 283 448 87 88 266 219
288 211 6 -2 26 -46 45 -98 19 -52 90 -245 158 -429 l123 -336 -27 -53 c-21
-43 -26 -68 -25 -120 1 -78 20 -126 70 -182 49 -54 104 -81 179 -87 157 -12
281 93 292 247 10 147 -73 260 -213 292 -32 7 -57 19 -60 28 -4 9 -69 187
-146 396 -77 209 -144 390 -149 403 -6 13 -10 27 -10 32 0 4 42 15 93 24 152
26 203 29 325 16z m-3157 -329 c125 -131 219 -285 278 -453 33 -95 61 -228 61
-291 l0 -40 -92 7 c-50 3 -263 6 -473 6 l-383 0 -11 29 c-12 27 -4 39 266 415
153 212 282 386 288 386 5 0 35 -27 66 -59z m3108 -725 c99 -52 82 -205 -26
-235 -72 -20 -150 32 -160 106 -13 100 96 175 186 129z m-3922 -16 c44 -26 66
-63 66 -111 0 -100 -114 -158 -200 -102 -77 51 -65 181 20 218 44 20 77 18
114 -5z"/>
</g>
</svg>
